<mxfile host="app.diagrams.net" modified="2024-01-31T11:47:08.780Z" agent="Mozilla/5.0 (Windows NT 10.0; Win64; x64) AppleWebKit/537.36 (KHTML, like Gecko) Chrome/121.0.0.0 Safari/537.36" version="23.0.2" etag="wChZTY1V_7p0HDkBd9k_" type="github">
  <diagram name="Page-1" id="tJ_ycIohhpeSscpb-sa9">
    <mxGraphModel>
      <root>
        <mxCell id="0" />
        <mxCell id="1" parent="0" />
      </root>
    </mxGraphModel>
  </diagram>
</mxfile>
